<svg xmlns="http://www.w3.org/2000/svg" xmlns:xlink="http://www.w3.org/1999/xlink" width="300" zoomAndPan="magnify" viewBox="0 0 224.87999 74.999997" height="100" preserveAspectRatio="xMidYMid meet" version="1.0"><defs><g/><clipPath id="0619643ac7"><rect x="0" width="213" y="0" height="29"/></clipPath></defs><g transform="matrix(1, 0, 0, 1, 5, 23)"><g clip-path="url(#0619643ac7)"><g fill="#1b4332" fill-opacity="1"><g transform="translate(0.791103, 22.642424)"><g><path d="M 23.84375 -6.640625 L 21.234375 -6.640625 L 28.25 0 L 24.015625 0 L 16.96875 -6.640625 L 5.53125 -6.640625 L 5.53125 0 L 2.3125 0 L 2.3125 -16.375 L 23.84375 -16.375 C 24.738281 -16.375 25.550781 -16.148438 26.28125 -15.703125 C 27.019531 -15.265625 27.609375 -14.679688 28.046875 -13.953125 C 28.492188 -13.222656 28.71875 -12.410156 28.71875 -11.515625 C 28.71875 -10.617188 28.492188 -9.800781 28.046875 -9.0625 C 27.609375 -8.332031 27.019531 -7.742188 26.28125 -7.296875 C 25.550781 -6.859375 24.738281 -6.640625 23.84375 -6.640625 Z M 23.84375 -13.265625 L 5.53125 -13.265625 L 5.53125 -9.75 L 23.84375 -9.75 C 24.34375 -9.75 24.757812 -9.921875 25.09375 -10.265625 C 25.4375 -10.597656 25.609375 -11.015625 25.609375 -11.515625 C 25.609375 -11.984375 25.4375 -12.390625 25.09375 -12.734375 C 24.769531 -13.085938 24.351562 -13.265625 23.84375 -13.265625 Z M 23.84375 -13.265625 "/></g></g></g><g fill="#1b4332" fill-opacity="1"><g transform="translate(31.355874, 22.642424)"><g><path d="M 29.171875 -16.375 L 29.171875 -13.265625 L 5.53125 -13.265625 L 5.53125 -9.75 L 22.6875 -9.75 L 22.6875 -6.640625 L 5.53125 -6.640625 L 5.53125 -3.109375 L 29.171875 -3.109375 L 29.171875 0 L 2.3125 0 L 2.3125 -16.375 Z M 29.171875 -16.375 "/></g></g></g><g fill="#1b4332" fill-opacity="1"><g transform="translate(62.383741, 22.642424)"><g><path d="M 23.828125 0 L 2.546875 0 L 2.546875 -3.109375 L 23.828125 -3.109375 C 24.316406 -3.109375 24.734375 -3.285156 25.078125 -3.640625 C 25.429688 -3.992188 25.609375 -4.410156 25.609375 -4.890625 C 25.609375 -5.347656 25.429688 -5.753906 25.078125 -6.109375 C 24.734375 -6.460938 24.316406 -6.640625 23.828125 -6.640625 L 6.71875 -6.640625 C 5.820312 -6.640625 5.003906 -6.859375 4.265625 -7.296875 C 3.535156 -7.742188 2.953125 -8.332031 2.515625 -9.0625 C 2.078125 -9.800781 1.859375 -10.617188 1.859375 -11.515625 C 1.859375 -12.410156 2.078125 -13.222656 2.515625 -13.953125 C 2.953125 -14.679688 3.535156 -15.265625 4.265625 -15.703125 C 5.003906 -16.148438 5.820312 -16.375 6.71875 -16.375 L 28.015625 -16.375 L 28.015625 -13.265625 L 6.71875 -13.265625 C 6.238281 -13.265625 5.820312 -13.09375 5.46875 -12.75 C 5.125 -12.414062 4.953125 -12.003906 4.953125 -11.515625 C 4.953125 -11.035156 5.125 -10.617188 5.46875 -10.265625 C 5.820312 -9.921875 6.238281 -9.75 6.71875 -9.75 L 23.828125 -9.75 C 24.722656 -9.75 25.539062 -9.523438 26.28125 -9.078125 C 27.019531 -8.640625 27.609375 -8.054688 28.046875 -7.328125 C 28.492188 -6.597656 28.71875 -5.785156 28.71875 -4.890625 C 28.71875 -3.992188 28.492188 -3.171875 28.046875 -2.421875 C 27.609375 -1.679688 27.019531 -1.09375 26.28125 -0.65625 C 25.539062 -0.21875 24.722656 0 23.828125 0 Z M 23.828125 0 "/></g></g></g><g fill="#1b4332" fill-opacity="1"><g transform="translate(92.948512, 22.642424)"><g><path d="M 24.296875 0 L 7.171875 0 C 6.273438 0 5.460938 -0.21875 4.734375 -0.65625 C 4.003906 -1.09375 3.414062 -1.679688 2.96875 -2.421875 C 2.53125 -3.171875 2.3125 -3.992188 2.3125 -4.890625 L 2.3125 -11.515625 C 2.3125 -12.410156 2.53125 -13.222656 2.96875 -13.953125 C 3.414062 -14.679688 4.003906 -15.265625 4.734375 -15.703125 C 5.460938 -16.148438 6.273438 -16.375 7.171875 -16.375 L 24.296875 -16.375 C 25.191406 -16.375 26.007812 -16.148438 26.75 -15.703125 C 27.488281 -15.265625 28.078125 -14.679688 28.515625 -13.953125 C 28.953125 -13.222656 29.171875 -12.410156 29.171875 -11.515625 L 29.171875 -4.890625 C 29.171875 -3.992188 28.953125 -3.171875 28.515625 -2.421875 C 28.078125 -1.679688 27.488281 -1.09375 26.75 -0.65625 C 26.007812 -0.21875 25.191406 0 24.296875 0 Z M 7.296875 -3.109375 L 24.171875 -3.109375 C 24.671875 -3.109375 25.09375 -3.285156 25.4375 -3.640625 C 25.78125 -3.992188 25.953125 -4.410156 25.953125 -4.890625 L 25.953125 -11.515625 C 25.953125 -12.003906 25.78125 -12.414062 25.4375 -12.75 C 25.09375 -13.09375 24.671875 -13.265625 24.171875 -13.265625 L 7.296875 -13.265625 C 6.816406 -13.265625 6.398438 -13.09375 6.046875 -12.75 C 5.703125 -12.414062 5.53125 -12.003906 5.53125 -11.515625 L 5.53125 -4.890625 C 5.53125 -4.410156 5.707031 -3.992188 6.0625 -3.640625 C 6.414062 -3.285156 6.828125 -3.109375 7.296875 -3.109375 Z M 7.296875 -3.109375 "/></g></g></g><g fill="#1b4332" fill-opacity="1"><g transform="translate(124.439477, 22.642424)"><g><path d="M 5.53125 -16.375 L 5.53125 -3.109375 L 26.859375 -3.109375 L 26.859375 0 L 2.3125 0 L 2.3125 -16.375 Z M 5.53125 -16.375 "/></g></g></g><g fill="#1b4332" fill-opacity="1"><g transform="translate(152.225597, 22.642424)"><g><path d="M 24.453125 0 L 7.046875 0 C 6.160156 0 5.363281 -0.210938 4.65625 -0.640625 C 3.945312 -1.066406 3.378906 -1.632812 2.953125 -2.34375 C 2.523438 -3.0625 2.3125 -3.851562 2.3125 -4.71875 L 2.3125 -16.375 L 5.53125 -16.375 L 5.53125 -4.71875 C 5.53125 -4.269531 5.6875 -3.890625 6 -3.578125 C 6.320312 -3.265625 6.707031 -3.109375 7.15625 -3.109375 L 24.34375 -3.109375 C 24.789062 -3.109375 25.171875 -3.265625 25.484375 -3.578125 C 25.796875 -3.890625 25.953125 -4.269531 25.953125 -4.71875 L 25.953125 -16.375 L 29.171875 -16.375 L 29.171875 -4.71875 C 29.171875 -3.851562 28.957031 -3.0625 28.53125 -2.34375 C 28.113281 -1.632812 27.546875 -1.066406 26.828125 -0.640625 C 26.117188 -0.210938 25.328125 0 24.453125 0 Z M 24.453125 0 "/></g></g></g><g fill="#1b4332" fill-opacity="1"><g transform="translate(183.716563, 22.642424)"><g><path d="M 27.953125 -16.375 L 27.953125 -13.265625 L 15.9375 -13.265625 L 15.9375 0 L 12.71875 0 L 12.71875 -13.265625 L 0.6875 -13.265625 L 0.6875 -16.375 Z M 27.953125 -16.375 "/></g></g></g></g></g></svg>